<svg aria-hidden="true" style="position: absolute; width: 0; height: 0; overflow: hidden;" version="1.1" xmlns="http://www.w3.org/2000/svg" xmlns:xlink="http://www.w3.org/1999/xlink">
<defs>
<symbol id="instagram" viewBox="0 0 32 32">
<path fill="none" stroke="#f2f1f3" style="stroke: var(--color1, #f2f1f3)" stroke-linejoin="round" stroke-linecap="round" stroke-miterlimit="4" stroke-width="2.6667" d="M22.667 2.667h-13.333c-3.682 0-6.667 2.985-6.667 6.667v0 13.333c0 3.682 2.985 6.667 6.667 6.667v0h13.333c3.682 0 6.667-2.985 6.667-6.667v0-13.333c0-3.682-2.985-6.667-6.667-6.667v0z"></path>
<path fill="none" stroke="#f2f1f3" style="stroke: var(--color1, #f2f1f3)" stroke-linejoin="round" stroke-linecap="round" stroke-miterlimit="4" stroke-width="2.6667" d="M21.333 15.16c0.043 0.253 0.067 0.545 0.067 0.843 0 2.946-2.388 5.333-5.333 5.333-2.691 0-4.917-1.993-5.281-4.584l-0.003-0.028c-0.031-0.217-0.049-0.467-0.049-0.721 0-2.946 2.388-5.333 5.333-5.333 2.648 0 4.845 1.93 5.262 4.46l0.004 0.031zM23.333 8.667h0.013"></path>
</symbol>
<symbol id="telegram" viewBox="0 0 32 32">
<path fill="#f2f1f3" style="fill: var(--color1, #f2f1f3)" d="M16.001 26.667c5.891 0 10.667-4.776 10.667-10.667s-4.776-10.667-10.667-10.667v0c-5.891 0-10.666 4.775-10.666 10.666s4.775 10.666 10.666 10.666v0zM16.001 29.334c-7.363 0-13.334-5.969-13.334-13.334 0-7.363 5.97-13.333 13.334-13.333 7.365 0 13.334 5.969 13.334 13.333 0 7.365-5.969 13.334-13.334 13.334zM11.855 17.56l-3.331-1.039c-0.72-0.219-0.723-0.715 0.162-1.072l12.977-5.013c0.752-0.307 1.182 0.080 0.937 1.053l-2.21 10.427c-0.155 0.743-0.602 0.92-1.222 0.577l-3.401-2.518-1.585 1.531c-0.163 0.157-0.295 0.291-0.546 0.325-0.249 0.034-0.454-0.040-0.606-0.454l-1.159-3.827-0.016 0.009z"></path>
</symbol>
<symbol id="facebook" viewBox="0 0 32 32">
<path fill="#f2f1f3" style="fill: var(--color1, #f2f1f3)" d="M14.259 11.917v1.835h-1.343v2.245h1.343v6.671h2.763v-6.671h1.854s0.174-1.077 0.258-2.254h-2.102v-1.533c0-0.231 0.302-0.539 0.6-0.539h1.504v-2.337h-2.046c-2.899 0-2.832 2.247-2.832 2.583z"></path>
<path fill="#f2f1f3" style="fill: var(--color1, #f2f1f3)" d="M8 5.334c-1.473 0-2.666 1.194-2.666 2.666v0 16c0 0 0 0.001 0 0.001 0 1.473 1.194 2.666 2.666 2.666h16c1.473 0 2.666-1.194 2.666-2.666 0-0 0-0.001 0-0.001v0-16c0-1.473-1.194-2.666-2.666-2.666v0h-16zM8 2.667h16c2.945 0 5.333 2.387 5.334 5.332v16c0 2.946-2.388 5.334-5.334 5.334h-16c-0 0-0.001 0-0.001 0-2.945 0-5.333-2.387-5.333-5.333 0-0 0-0.001 0-0.001v0-16c0-2.946 2.388-5.334 5.334-5.334v0z"></path>
</symbol>
<symbol id="arrow-1" viewBox="0 0 3 32">
<path fill="#f2f1f3" style="fill: var(--color1, #f2f1f3)" d="M1.6 32l1.54-2.667h-3.079l1.54 2.667zM1.333 0v29.6h0.533v-29.6h-0.533z"></path>
</symbol>
<symbol id="icon-done" viewBox="0 0 32 32">
<path fill="#f2f1f3" style="fill: var(--color1, #f2f1f3)" opacity="0.9" d="M12.733 20.2l11.3-11.3c0.267-0.267 0.584-0.4 0.951-0.4s0.684 0.133 0.949 0.4c0.267 0.267 0.4 0.584 0.4 0.951s-0.133 0.684-0.4 0.949l-12.266 12.267c-0.267 0.267-0.577 0.4-0.933 0.4s-0.667-0.133-0.933-0.4l-5.734-5.733c-0.267-0.267-0.395-0.584-0.384-0.951s0.15-0.684 0.417-0.949c0.267-0.267 0.584-0.4 0.951-0.4s0.684 0.133 0.949 0.4l4.733 4.767z"></path>
</symbol>
<symbol id="check-light" viewBox="0 0 32 32">
<path fill="#7b6bda" style="fill: var(--color2, #7b6bda)" d="M28.531 9.529l-16 16c-0.136 0.135-0.323 0.219-0.53 0.219s-0.394-0.084-0.53-0.219l-7-7c-0.119-0.132-0.191-0.308-0.191-0.501 0-0.415 0.336-0.751 0.751-0.751 0.193 0 0.369 0.073 0.502 0.192l-0.001-0.001 6.469 6.469 15.471-15.469c0.132-0.119 0.308-0.191 0.501-0.191 0.415 0 0.751 0.336 0.751 0.751 0 0.193-0.073 0.369-0.192 0.502l0.001-0.001z"></path>
</symbol>
<symbol id="btn-close" viewBox="0 0 32 32">
<path fill="#f2f1f3" style="fill: var(--color1, #f2f1f3)" d="M25.334 8.546l-1.88-1.88-7.454 7.454-7.453-7.454-1.88 1.88 7.453 7.454-7.453 7.454 1.88 1.88 7.453-7.454 7.454 7.454 1.88-1.88-7.454-7.454 7.454-7.454z"></path>
</symbol>
<symbol id="burger" viewBox="0 0 32 32">
<path fill="none" stroke="#f2f1f3" style="stroke: var(--color1, #f2f1f3)" stroke-linejoin="miter" stroke-linecap="round" stroke-miterlimit="4" stroke-width="2.6667" d="M2.667 6.667h26.667M2.667 16h26.667M2.667 25.333h26.667"></path>
</symbol>
<symbol id="chevron-right" viewBox="0 0 32 32">
<path fill="none" stroke="#7b6bda" style="stroke: var(--color2, #7b6bda)" stroke-linejoin="round" stroke-linecap="round" stroke-miterlimit="4" stroke-width="2.6667" d="M12 24l8-8-8-8"></path>
</symbol>
<symbol id="logo" viewBox="0 0 32 32">
<path fill="#7b6bda" style="fill: var(--color2, #7b6bda)" d="M31.982 0.757c-0.007-0.031-0.014-0.057-0.021-0.083-0.007-0.030-0.014-0.064-0.029-0.093-0.014-0.035-0.032-0.065-0.047-0.095-0.012-0.027-0.024-0.049-0.037-0.071l0.002 0.003c-0.066-0.103-0.148-0.189-0.243-0.258l-0.003-0.002c-0.020-0.014-0.042-0.026-0.065-0.036l-0.003-0.001c-0.029-0.015-0.057-0.034-0.085-0.049-0.029-0.011-0.061-0.019-0.089-0.030-0.025-0.007-0.050-0.019-0.079-0.023-0.052-0.011-0.112-0.018-0.174-0.019h-3.857c-0.493 0-0.892 0.422-0.892 0.941s0.4 0.942 0.892 0.942h1.701l-4.427 4.674c-1.435-1.22-3.254-1.955-5.233-1.955-4.603 0-8.349 3.955-8.349 8.813 0 0.52 0.4 0.942 0.892 0.942s0.892-0.422 0.892-0.942c0-3.819 2.943-6.93 6.564-6.93s6.564 3.107 6.564 6.93c0 3.823-2.943 6.931-6.564 6.931-0.492 0-0.892 0.422-0.892 0.941s0.4 0.942 0.892 0.942c4.602 0 8.348-3.955 8.348-8.813 0-2.091-0.696-4.015-1.851-5.526l4.427-4.674v1.797c0 0.52 0.4 0.941 0.892 0.941s0.892-0.421 0.892-0.941v-4.072c0-0.060-0.007-0.124-0.018-0.184z"></path>
<path fill="#f2f1f3" style="fill: var(--color1, #f2f1f3)" d="M14.245 19.646c3.253-3.435 3.253-9.028 0-12.463s-8.551-3.435-11.805 0c-3.253 3.435-3.253 9.028 0 12.463 1.402 1.48 3.179 2.316 5.009 2.523v5.213h-2.019c-0.492 0-0.891 0.421-0.891 0.941s0.399 0.941 0.891 0.941h2.020v1.793c0 0.52 0.399 0.941 0.891 0.941s0.892-0.422 0.892-0.941v-1.793h2.019c0.492 0 0.891-0.422 0.891-0.941s-0.399-0.942-0.891-0.942h-2.020v-5.213c1.831-0.207 3.611-1.043 5.009-2.523h0.003zM3.703 8.516c1.28-1.352 2.961-2.027 4.641-2.027s3.361 0.675 4.641 2.027c2.558 2.7 2.558 7.1 0 9.8s-6.725 2.701-9.282 0c-2.558-2.7-2.558-7.1 0-9.8z"></path>
<path fill="#7b6bda" style="fill: var(--color2, #7b6bda)" d="M19.293 22.23c-4.603 0-8.349-3.955-8.349-8.813 0-0.52 0.4-0.942 0.892-0.942s0.892 0.422 0.892 0.941c0 3.823 2.943 6.931 6.564 6.931 0.493 0 0.892 0.422 0.892 0.941s-0.4 0.942-0.892 0.942z"></path>
</symbol>
<symbol id="marker" viewBox="0 0 32 32">
<path fill="#7b6bda" style="fill: var(--color1, #7b6bda)" d="M32 16c0 8.837-7.163 16-16 16s-16-7.163-16-16c0-8.837 7.163-16 16-16s16 7.163 16 16z"></path>
</symbol>
<symbol id="done" width="88" height="88" viewBox="0 0 88 88" fill="none" xmlns="http://www.w3.org/2000/svg">
<path d="M35.0167 55.55L66.0917 24.475C66.825 23.7417 67.6965 23.375 68.706 23.375C69.7156 23.375 70.5858 23.7417 71.3167 24.475C72.05 25.2083 72.4167 26.0798 72.4167 27.0893C72.4167 28.0989 72.05 28.9691 71.3167 29.7L37.5834 63.4333C36.85 64.1667 35.9945 64.5333 35.0167 64.5333C34.0389 64.5333 33.1834 64.1667 32.45 63.4333L16.6834 47.6667C15.95 46.9333 15.598 46.0619 15.6274 45.0523C15.6567 44.0428 16.0393 43.1726 16.775 42.4417C17.5084 41.7083 18.3798 41.3417 19.3894 41.3417C20.3989 41.3417 21.2691 41.7083 22 42.4417L35.0167 55.55Z" fill="#F2F1F3" fill-opacity="0.9"/>
</symbol>
<symbol id="close-r" width="40" height="40" viewBox="0 0 40 40" fill="none" xmlns="http://www.w3.org/2000/svg">
<g id="Group">
<path id="Vector" d="M27.3266 12.928C27.4815 13.0828 27.6045 13.2666 27.6883 13.4689C27.7722 13.6712 27.8154 13.8881 27.8154 14.1071C27.8154 14.3262 27.7722 14.5431 27.6883 14.7454C27.6045 14.9477 27.4815 15.1315 27.3266 15.2863L22.3566 20.2546L26.8166 24.713C27.1293 25.0257 27.305 25.4499 27.305 25.8921C27.305 26.3344 27.1293 26.7586 26.8166 27.0713C26.5038 27.384 26.0797 27.5597 25.6374 27.5597C25.1951 27.5597 24.771 27.384 24.4582 27.0713L19.9999 22.6113L15.5416 27.0713C15.2288 27.384 14.8047 27.5597 14.3624 27.5597C13.9201 27.5597 13.496 27.384 13.1832 27.0713C12.8705 26.7586 12.6948 26.3344 12.6948 25.8921C12.6948 25.4499 12.8705 25.0257 13.1832 24.713L17.6432 20.2546L12.6732 15.2863C12.5184 15.1314 12.3956 14.9474 12.3118 14.745C12.2281 14.5426 12.185 14.3256 12.1851 14.1066C12.1851 13.8875 12.2284 13.6706 12.3123 13.4682C12.3962 13.2659 12.5191 13.082 12.6741 12.9271C12.829 12.7723 13.013 12.6495 13.2154 12.5657C13.4178 12.482 13.6348 12.4389 13.8538 12.439C14.0729 12.439 14.2898 12.4823 14.4922 12.5662C14.6945 12.6501 14.8784 12.773 15.0332 12.928L19.9999 17.8996L24.9682 12.9296C25.123 12.7747 25.3068 12.6518 25.5092 12.5679C25.7115 12.484 25.9284 12.4408 26.1474 12.4408C26.3664 12.4408 26.5833 12.484 26.7856 12.5679C26.988 12.6518 27.1718 12.773 27.3266 12.928Z" fill="#F2F1F3"/>
<path id="Vector_2" fill-rule="evenodd" clip-rule="evenodd" d="M6.66663 1.6665C5.34054 1.6665 4.06877 2.19329 3.13109 3.13097C2.19341 4.06865 1.66663 5.34042 1.66663 6.6665V33.3332C1.66663 34.6593 2.19341 35.931 3.13109 36.8687C4.06877 37.8064 5.34054 38.3332 6.66663 38.3332H33.3333C34.6594 38.3332 35.9311 37.8064 36.8688 36.8687C37.8065 35.931 38.3333 34.6593 38.3333 33.3332V6.6665C38.3333 5.34042 37.8065 4.06865 36.8688 3.13097C35.9311 2.19329 34.6594 1.6665 33.3333 1.6665H6.66663ZM33.3333 4.99984H6.66663C6.2246 4.99984 5.80068 5.17543 5.48811 5.48799C5.17555 5.80055 4.99996 6.22448 4.99996 6.6665V33.3332C4.99996 33.7752 5.17555 34.1991 5.48811 34.5117C5.80068 34.8242 6.2246 34.9998 6.66663 34.9998H33.3333C33.7753 34.9998 34.1992 34.8242 34.5118 34.5117C34.8244 34.1991 35 33.7752 35 33.3332V6.6665C35 6.22448 34.8244 5.80055 34.5118 5.48799C34.1992 5.17543 33.7753 4.99984 33.3333 4.99984Z" fill="#F2F1F3"/>
</g>
</symbol>
<symbol id="arrow-up" width="28" height="29" viewBox="0 0 28 29" fill="none" xmlns="http://www.w3.org/2000/svg">
<path d="M11.9999 7.14208L4.09987 15.0421C3.72267 15.4064 3.21746 15.608 2.69307 15.6034C2.16868 15.5989 1.66705 15.3885 1.29624 15.0177C0.92542 14.6469 0.715082 14.1453 0.710525 13.6209C0.705968 13.0965 0.907557 12.5913 1.27187 12.2141L12.5859 0.900081C12.7712 0.713711 12.9915 0.565812 13.2342 0.46489C13.4768 0.363967 13.7371 0.312012 13.9999 0.312012C14.2627 0.312012 14.5229 0.363967 14.7656 0.46489C15.0082 0.565812 15.2286 0.713711 15.4139 0.900081L26.7279 12.2141C27.0832 12.593 27.2771 13.0953 27.2687 13.6146C27.2603 14.134 27.0501 14.6297 26.6827 14.9969C26.3153 15.364 25.8194 15.5738 25.3 15.5819C24.7807 15.59 24.2785 15.3957 23.8999 15.0401L15.9999 7.14008V26.3121C15.9999 26.8425 15.7892 27.3512 15.4141 27.7263C15.039 28.1014 14.5303 28.3121 13.9999 28.3121C13.4694 28.3121 12.9607 28.1014 12.5857 27.7263C12.2106 27.3512 11.9999 26.8425 11.9999 26.3121V7.14208Z" fill="#F2F1F3"/>
</symbol>
<symbol id="gift" viewBox="0 0 32 32">
<path fill="none" stroke="#f2f1f3" style="stroke: var(--color1, #f2f1f3)" stroke-linejoin="round" stroke-linecap="round" stroke-miterlimit="4" stroke-width="2.6667" d="M26.667 16v13.333h-21.333v-13.333M16 29.333v-20M16 9.333h-6c-0.884 0-1.732-0.351-2.357-0.976s-0.976-1.473-0.976-2.357c0-0.884 0.351-1.732 0.976-2.357s1.473-0.976 2.357-0.976c4.667 0 6 6.667 6 6.667zM16 9.333h6c0.884 0 1.732-0.351 2.357-0.976s0.976-1.473 0.976-2.357-0.351-1.732-0.976-2.357c-0.625-0.625-1.473-0.976-2.357-0.976-4.667 0-6 6.667-6 6.667zM2.667 9.333h26.667v6.667h-26.667v-6.667z"></path>
</symbol>
</defs>
</svg>
