<svg aria-hidden="true" style="position: absolute; width: 0; height: 0; overflow: hidden;" version="1.1" xmlns="http://www.w3.org/2000/svg" xmlns:xlink="http://www.w3.org/1999/xlink">
<defs>
<symbol id="instagram" viewBox="0 0 32 32">
<path fill="none" stroke="#f2f1f3" style="stroke: var(--color1, #f2f1f3)" stroke-linejoin="round" stroke-linecap="round" stroke-miterlimit="4" stroke-width="2.6667" d="M22.667 2.667h-13.333c-3.682 0-6.667 2.985-6.667 6.667v0 13.333c0 3.682 2.985 6.667 6.667 6.667v0h13.333c3.682 0 6.667-2.985 6.667-6.667v0-13.333c0-3.682-2.985-6.667-6.667-6.667v0z"></path>
<path fill="none" stroke="#f2f1f3" style="stroke: var(--color1, #f2f1f3)" stroke-linejoin="round" stroke-linecap="round" stroke-miterlimit="4" stroke-width="2.6667" d="M21.333 15.16c0.043 0.253 0.067 0.545 0.067 0.843 0 2.946-2.388 5.333-5.333 5.333-2.691 0-4.917-1.993-5.281-4.584l-0.003-0.028c-0.031-0.217-0.049-0.467-0.049-0.721 0-2.946 2.388-5.333 5.333-5.333 2.648 0 4.845 1.93 5.262 4.46l0.004 0.031zM23.333 8.667h0.013"></path>
</symbol>
<symbol id="telegram" viewBox="0 0 32 32">
<path fill="#f2f1f3" style="fill: var(--color1, #f2f1f3)" d="M16.001 26.667c5.891 0 10.667-4.776 10.667-10.667s-4.776-10.667-10.667-10.667v0c-5.891 0-10.666 4.775-10.666 10.666s4.775 10.666 10.666 10.666v0zM16.001 29.334c-7.363 0-13.334-5.969-13.334-13.334 0-7.363 5.97-13.333 13.334-13.333 7.365 0 13.334 5.969 13.334 13.333 0 7.365-5.969 13.334-13.334 13.334zM11.855 17.56l-3.331-1.039c-0.72-0.219-0.723-0.715 0.162-1.072l12.977-5.013c0.752-0.307 1.182 0.080 0.937 1.053l-2.21 10.427c-0.155 0.743-0.602 0.92-1.222 0.577l-3.401-2.518-1.585 1.531c-0.163 0.157-0.295 0.291-0.546 0.325-0.249 0.034-0.454-0.040-0.606-0.454l-1.159-3.827-0.016 0.009z"></path>
</symbol>
<symbol id="facebook" viewBox="0 0 32 32">
<path fill="#f2f1f3" style="fill: var(--color1, #f2f1f3)" d="M14.259 11.917v1.835h-1.343v2.245h1.343v6.671h2.763v-6.671h1.854s0.174-1.077 0.258-2.254h-2.102v-1.533c0-0.231 0.302-0.539 0.6-0.539h1.504v-2.337h-2.046c-2.899 0-2.832 2.247-2.832 2.583z"></path>
<path fill="#f2f1f3" style="fill: var(--color1, #f2f1f3)" d="M8 5.334c-1.473 0-2.666 1.194-2.666 2.666v0 16c0 0 0 0.001 0 0.001 0 1.473 1.194 2.666 2.666 2.666h16c1.473 0 2.666-1.194 2.666-2.666 0-0 0-0.001 0-0.001v0-16c0-1.473-1.194-2.666-2.666-2.666v0h-16zM8 2.667h16c2.945 0 5.333 2.387 5.334 5.332v16c0 2.946-2.388 5.334-5.334 5.334h-16c-0 0-0.001 0-0.001 0-2.945 0-5.333-2.387-5.333-5.333 0-0 0-0.001 0-0.001v0-16c0-2.946 2.388-5.334 5.334-5.334v0z"></path>
</symbol>
<symbol id="arrow-1" viewBox="0 0 3 32">
<path fill="#f2f1f3" style="fill: var(--color1, #f2f1f3)" d="M1.6 32l1.54-2.667h-3.079l1.54 2.667zM1.333 0v29.6h0.533v-29.6h-0.533z"></path>
</symbol>
<symbol id="icon-done" viewBox="0 0 32 32">
<path fill="#f2f1f3" style="fill: var(--color1, #f2f1f3)" opacity="0.9" d="M12.733 20.2l11.3-11.3c0.267-0.267 0.584-0.4 0.951-0.4s0.684 0.133 0.949 0.4c0.267 0.267 0.4 0.584 0.4 0.951s-0.133 0.684-0.4 0.949l-12.266 12.267c-0.267 0.267-0.577 0.4-0.933 0.4s-0.667-0.133-0.933-0.4l-5.734-5.733c-0.267-0.267-0.395-0.584-0.384-0.951s0.15-0.684 0.417-0.949c0.267-0.267 0.584-0.4 0.951-0.4s0.684 0.133 0.949 0.4l4.733 4.767z"></path>
</symbol>
<symbol id="check-light" viewBox="0 0 32 32">
<path fill="#7b6bda" style="fill: var(--color2, #7b6bda)" d="M28.531 9.529l-16 16c-0.136 0.135-0.323 0.219-0.53 0.219s-0.394-0.084-0.53-0.219l-7-7c-0.119-0.132-0.191-0.308-0.191-0.501 0-0.415 0.336-0.751 0.751-0.751 0.193 0 0.369 0.073 0.502 0.192l-0.001-0.001 6.469 6.469 15.471-15.469c0.132-0.119 0.308-0.191 0.501-0.191 0.415 0 0.751 0.336 0.751 0.751 0 0.193-0.073 0.369-0.192 0.502l0.001-0.001z"></path>
</symbol>
<symbol id="btn-close" viewBox="0 0 32 32">
<path fill="#f2f1f3" style="fill: var(--color1, #f2f1f3)" d="M25.334 8.546l-1.88-1.88-7.454 7.454-7.453-7.454-1.88 1.88 7.453 7.454-7.453 7.454 1.88 1.88 7.453-7.454 7.454 7.454 1.88-1.88-7.454-7.454 7.454-7.454z"></path>
</symbol>
<symbol id="burger" viewBox="0 0 32 32">
<path fill="none" stroke="#f2f1f3" style="stroke: var(--color1, #f2f1f3)" stroke-linejoin="miter" stroke-linecap="round" stroke-miterlimit="4" stroke-width="2.6667" d="M2.667 6.667h26.667M2.667 16h26.667M2.667 25.333h26.667"></path>
</symbol>
<symbol id="chevron-right" viewBox="0 0 32 32">
<path fill="none" stroke="#7b6bda" style="stroke: var(--color2, #7b6bda)" stroke-linejoin="round" stroke-linecap="round" stroke-miterlimit="4" stroke-width="2.6667" d="M12 24l8-8-8-8"></path>
</symbol>
<symbol id="logo" viewBox="0 0 32 32">
<path fill="#7b6bda" style="fill: var(--color2, #7b6bda)" d="M31.982 0.757c-0.007-0.031-0.014-0.057-0.021-0.083-0.007-0.030-0.014-0.064-0.029-0.093-0.014-0.035-0.032-0.065-0.047-0.095-0.012-0.027-0.024-0.049-0.037-0.071l0.002 0.003c-0.066-0.103-0.148-0.189-0.243-0.258l-0.003-0.002c-0.020-0.014-0.042-0.026-0.065-0.036l-0.003-0.001c-0.029-0.015-0.057-0.034-0.085-0.049-0.029-0.011-0.061-0.019-0.089-0.030-0.025-0.007-0.050-0.019-0.079-0.023-0.052-0.011-0.112-0.018-0.174-0.019h-3.857c-0.493 0-0.892 0.422-0.892 0.941s0.4 0.942 0.892 0.942h1.701l-4.427 4.674c-1.435-1.22-3.254-1.955-5.233-1.955-4.603 0-8.349 3.955-8.349 8.813 0 0.52 0.4 0.942 0.892 0.942s0.892-0.422 0.892-0.942c0-3.819 2.943-6.93 6.564-6.93s6.564 3.107 6.564 6.93c0 3.823-2.943 6.931-6.564 6.931-0.492 0-0.892 0.422-0.892 0.941s0.4 0.942 0.892 0.942c4.602 0 8.348-3.955 8.348-8.813 0-2.091-0.696-4.015-1.851-5.526l4.427-4.674v1.797c0 0.52 0.4 0.941 0.892 0.941s0.892-0.421 0.892-0.941v-4.072c0-0.060-0.007-0.124-0.018-0.184z"></path>
<path fill="#f2f1f3" style="fill: var(--color1, #f2f1f3)" d="M14.245 19.646c3.253-3.435 3.253-9.028 0-12.463s-8.551-3.435-11.805 0c-3.253 3.435-3.253 9.028 0 12.463 1.402 1.48 3.179 2.316 5.009 2.523v5.213h-2.019c-0.492 0-0.891 0.421-0.891 0.941s0.399 0.941 0.891 0.941h2.020v1.793c0 0.52 0.399 0.941 0.891 0.941s0.892-0.422 0.892-0.941v-1.793h2.019c0.492 0 0.891-0.422 0.891-0.941s-0.399-0.942-0.891-0.942h-2.020v-5.213c1.831-0.207 3.611-1.043 5.009-2.523h0.003zM3.703 8.516c1.28-1.352 2.961-2.027 4.641-2.027s3.361 0.675 4.641 2.027c2.558 2.7 2.558 7.1 0 9.8s-6.725 2.701-9.282 0c-2.558-2.7-2.558-7.1 0-9.8z"></path>
<path fill="#7b6bda" style="fill: var(--color2, #7b6bda)" d="M19.293 22.23c-4.603 0-8.349-3.955-8.349-8.813 0-0.52 0.4-0.942 0.892-0.942s0.892 0.422 0.892 0.941c0 3.823 2.943 6.931 6.564 6.931 0.493 0 0.892 0.422 0.892 0.941s-0.4 0.942-0.892 0.942z"></path>
</symbol>
</defs>
</svg>
