<svg width="48" height="48" viewBox="0 0 48 48" fill="none" xmlns="http://www.w3.org/2000/svg">
<g clip-path="url(#clip0_801_160)">
<path d="M47.9732 1.13559C47.9625 1.0904 47.9518 1.05085 47.9411 1.0113C47.9304 0.966102 47.9197 0.915254 47.8983 0.870057C47.8769 0.819209 47.8501 0.774011 47.8287 0.728814C47.8127 0.694915 47.7966 0.661017 47.7752 0.627119C47.6789 0.474576 47.5505 0.338983 47.406 0.237288C47.3739 0.214689 47.3418 0.19774 47.3043 0.180791C47.2615 0.158192 47.2187 0.129944 47.1759 0.107345C47.1331 0.0903955 47.0849 0.0790961 47.0421 0.0621469C47.0047 0.0508475 46.9672 0.0338983 46.9244 0.0282486C46.8388 0.0112994 46.7478 0 46.6622 0H40.8776C40.1391 0 39.5398 0.632769 39.5398 1.41243C39.5398 2.19209 40.1391 2.82486 40.8776 2.82486H43.4301L36.7893 9.83616C34.6381 8.00565 31.909 6.90396 28.9391 6.90396C22.0361 6.90396 16.4174 12.8362 16.4174 20.1243C16.4174 20.904 17.0167 21.5367 17.7552 21.5367C18.4936 21.5367 19.0929 20.904 19.0929 20.1243C19.0929 14.3955 23.5077 9.72882 28.9391 9.72882C34.3705 9.72882 38.7853 14.3898 38.7853 20.1243C38.7853 25.8588 34.3705 30.5198 28.9391 30.5198C28.2006 30.5198 27.6013 31.1525 27.6013 31.9322C27.6013 32.7119 28.2006 33.3446 28.9391 33.3446C35.8421 33.3446 41.4608 27.4124 41.4608 20.1243C41.4608 16.9887 40.4174 14.1017 38.6836 11.8362L45.3244 4.82486V7.51978C45.3244 8.29944 45.9237 8.93221 46.6622 8.93221C47.4006 8.93221 48 8.29944 48 7.51978V1.41243C48 1.32203 47.9893 1.22599 47.9732 1.13559Z" fill="#7B6BDA"/>
<path d="M21.3672 29.4689C26.2475 24.3163 26.2475 15.9265 21.3672 10.774C16.487 5.62141 8.54047 5.62141 3.6602 10.774C-1.22007 15.9265 -1.22007 24.3163 3.6602 29.4689C5.76321 31.6892 8.42809 32.9434 11.1732 33.2542V41.0734H8.14448C7.40602 41.0734 6.80669 41.7062 6.80669 42.4858C6.80669 43.2655 7.40602 43.8982 8.14448 43.8982H11.1732V46.5875C11.1732 47.3672 11.7726 47.9999 12.511 47.9999C13.2495 47.9999 13.8488 47.3672 13.8488 46.5875V43.8982H16.8776C17.6161 43.8982 18.2154 43.2655 18.2154 42.4858C18.2154 41.7062 17.6161 41.0734 16.8776 41.0734H13.8488V33.2542C16.594 32.9434 19.2642 31.6892 21.3619 29.4689H21.3672ZM5.55451 12.774C7.47558 10.7457 9.99599 9.7344 12.5164 9.7344C15.0368 9.7344 17.5572 10.7457 19.4783 12.774C23.3151 16.8248 23.3151 23.4237 19.4783 27.4745C15.6415 31.5254 9.3913 31.5254 5.55451 27.4745C1.71773 23.4237 1.71773 16.8248 5.55451 12.774Z" fill="#F2F1F3"/>
<path d="M28.9391 33.3447C22.0361 33.3447 16.4174 27.4125 16.4174 20.1243C16.4174 19.3447 17.0167 18.7119 17.7552 18.7119C18.4936 18.7119 19.0929 19.3447 19.0929 20.1243C19.0929 25.8588 23.5077 30.5198 28.9391 30.5198C29.6776 30.5198 30.2769 31.1526 30.2769 31.9323C30.2769 32.7119 29.6776 33.3447 28.9391 33.3447Z" fill="#7B6BDA"/>
</g>
<defs>
<clipPath id="clip0_801_160">
<rect width="48" height="48" fill="white"/>
</clipPath>
</defs>
</svg>
